<svg width="676" height="1117" viewBox="0 0 676 1117" fill="none" xmlns="http://www.w3.org/2000/svg">
<path d="M253.97 1415.07C100.027 1410.41 54.8527 1275.12 51.5083 1208.05C124.428 961.935 328.577 516.121 561.811 701.769C853.354 933.829 659.642 1176.53 645.42 1218.29C631.198 1260.05 446.398 1420.89 253.97 1415.07Z" fill="#9763F6"/>
<path d="M373.69 354.521C320.345 235.126 242.125 -36.7213 356.006 -168.949C599.003 -197.224 1082.45 -197.732 1072.25 26.4338C1049.55 296.961 1085.28 73.1533 875.021 393.355C706.817 649.516 432.26 485.609 373.69 354.521Z" fill="#E15A32"/>
<path d="M158.769 620.102C235.931 581.776 282.481 451.048 325.352 537.361C368.223 623.675 367.382 846.428 290.22 884.754C213.057 923.08 115.751 884.179 72.8797 797.866C30.0087 711.553 81.6064 658.428 158.769 620.102Z" fill="#F9D154"/>
<path d="M246.511 204.5C162.17 215.608 114.011 155.875 100.473 124.62C77.3371 91.8527 45.0962 -54.2919 67.8883 -114.79C120.851 -255.372 297.662 -502.651 581.203 -367.109C864.744 -231.566 622.137 -1.19219 465.39 97.052C427.573 128.24 330.852 193.393 246.511 204.5Z" fill="#2458CC"/>
</svg>
