<?xml version="1.0" encoding="UTF-8" standalone="no"?>
<svg
   xmlns:dc="http://purl.org/dc/elements/1.1/"
   xmlns:cc="http://creativecommons.org/ns#"
   xmlns:rdf="http://www.w3.org/1999/02/22-rdf-syntax-ns#"
   xmlns:svg="http://www.w3.org/2000/svg"
   xmlns="http://www.w3.org/2000/svg"
   id="svg1442"
   version="1.1"
   viewBox="0 0 155.01633 155.01633"
   height="155.01633mm"
   width="155.01633mm">
  <defs
     id="defs1436" />
  <metadata
     id="metadata1439">
    <rdf:RDF>
      <cc:Work
         rdf:about="">
        <dc:format>image/svg+xml</dc:format>
        <dc:type
           rdf:resource="http://purl.org/dc/dcmitype/StillImage" />
        <dc:title></dc:title>
      </cc:Work>
    </rdf:RDF>
  </metadata>
  <g
     transform="translate(-27.49184,-70.991836)"
     id="layer1">
    <g
       id="g848"
       transform="translate(-285.13963,7.9162292)">
      <rect
         style="fill:#ffffff;fill-opacity:1;stroke:none;stroke-width:0;stroke-linecap:butt;stroke-linejoin:miter;stroke-miterlimit:4;stroke-dasharray:none;stroke-opacity:1"
         id="rect1425-9"
         width="155.01633"
         height="155.01633"
         x="312.63147"
         y="63.075607"
         ry="13.229167" />
      <path
         style="fill:#007bff;fill-opacity:1;stroke-width:0.26458332"
         d="m 401.19274,166.65051 -26.45735,-26.45833 h -18.52082 -18.52084 l 26.45734,26.45833 26.45733,26.45833 h 18.52084 18.52084 z m 15.90964,-2.79732 c 11.92229,-4.46504 21.10266,-14.63915 24.28472,-26.91348 1.80762,-6.97267 1.56027,-15.01761 -0.67282,-21.88295 -2.90071,-8.91781 -9.04978,-16.598614 -17.23406,-21.527074 -3.54821,-2.13668 -7.43614,-3.656242 -12.10103,-4.729582 -2.50743,-0.57694 -2.59936,-0.57854 -37.83542,-0.65989 l -35.32186,-0.0815 13.09687,13.111706 13.09686,13.11171 20.76979,-0.0379 c 20.70553,-0.0378 20.77508,-0.0362 22.47532,0.53991 9.03897,3.06258 11.87515,14.44516 5.30431,21.288 -0.88696,0.92368 -2.29124,2.03864 -3.12062,2.47766 -2.90938,1.54008 -3.6536,1.64246 -11.9398,1.64246 h -7.55767 l 12.16868,12.17083 c 6.69277,6.69396 12.30382,12.17083 12.46898,12.17083 0.16517,0 1.11816,-0.30629 2.11775,-0.68065 z"
         id="path1423-5-8" />
    </g>
  </g>
</svg>
